<?xml version="1.0" standalone="no"?>
<!DOCTYPE svg PUBLIC "-//W3C//DTD SVG 20010904//EN"
 "http://www.w3.org/TR/2001/REC-SVG-20010904/DTD/svg10.dtd">
<svg version="1.0" xmlns="http://www.w3.org/2000/svg"
 width="700.000000pt" height="700.000000pt" viewBox="0 0 700.000000 700.000000"
 preserveAspectRatio="xMidYMid meet">
<metadata>
Created by potrace 1.11, written by Peter Selinger 2001-2013
</metadata>
<g transform="translate(0.000000,700.000000) scale(0.100000,-0.100000)"
fill="#000000" stroke="none">
<path d="M3404 6472 c-167 -59 -241 -249 -161 -409 25 -49 83 -104 137 -132
45 -22 134 -29 190 -14 171 43 262 220 200 387 -54 142 -222 220 -366 168z"/>
<path d="M2354 4691 c-69 -33 -106 -72 -141 -148 -22 -47 -25 -65 -21 -127 20
-301 409 -381 549 -113 32 61 36 160 9 230 -43 113 -135 178 -261 183 -66 3
-83 0 -135 -25z"/>
<path d="M4440 4711 c-208 -63 -278 -324 -130 -479 58 -60 111 -84 196 -90 64
-4 77 -1 137 27 105 50 157 128 165 247 4 62 1 80 -22 130 -33 72 -91 127
-163 154 -54 20 -136 25 -183 11z"/>
<path d="M1423 2949 c-195 -25 -309 -229 -228 -407 103 -224 417 -227 527 -3
31 63 32 176 1 242 -53 117 -174 184 -300 168z"/>
<path d="M5499 2949 c-96 -14 -182 -79 -222 -167 -31 -67 -30 -180 1 -243 29
-59 82 -112 141 -141 63 -31 176 -32 243 -1 175 80 224 312 97 457 -64 73
-164 109 -260 95z"/>
<path d="M3392 2932 c-61 -25 -123 -81 -152 -138 -21 -41 -25 -63 -25 -134 0
-100 20 -146 88 -211 185 -174 489 -37 486 219 -1 104 -63 205 -155 252 -64
32 -179 38 -242 12z"/>
<path d="M365 1175 c-135 -40 -216 -145 -216 -280 0 -191 167 -323 359 -282
164 35 262 222 200 386 -21 56 -84 128 -134 154 -56 29 -153 39 -209 22z"/>
<path d="M6494 1176 c-129 -31 -213 -133 -220 -269 -8 -158 109 -291 265 -302
122 -8 228 51 283 159 24 48 28 66 29 138 2 179 -177 316 -357 274z"/>
<path d="M2410 1021 c-69 -38 -94 -117 -59 -188 26 -53 70 -83 122 -83 86 0
149 61 150 146 1 104 -121 176 -213 125z"/>
<path d="M4455 1020 c-132 -65 -84 -270 63 -270 154 0 204 204 67 270 -52 25
-80 25 -130 0z"/>
</g>
</svg>
